# xmcd
#
# Track frame offsets:
#	150
#	18488
#	33736
#	48402
#	65232
#	80759
#	110749
#
# Disc length: 1484 seconds
#
# Revision: 1
# Processed by: cddbd v1.5PL3 Copyright (c) Steve Scherf et al.
# Submitted via: audiograbber 1.83.01
#
DISCID=6505ca07
DTITLE=Priddis Custom Karaoke CD - Mixed Artists/Songs
DYEAR=2002
DGENRE=Karaoke
TTITLE0=Jamie O' Neil - There Is No Arizona
TTITLE1=Cyndi Thompson -  What I Really Meant To Say   
TTITLE2=Jamie O'Neil - When I Think About Angels
TTITLE3=Faith Hill - There You'll Be 
TTITLE4=LeAnn Rimes - But I Do Love You
TTITLE5=Jo Dee Messina - Bring On The Rain
TTITLE6=Priddis Catalog - Data Track
EXTD=I ordered this special for me, but I may as well share it, if anyone is in
EXTD=terested.  There are six songs, I believe, and this is CD+G, but will play
EXTD=if you don't have a Karaoke machine or screen to see words, etc... 
EXTT0=
EXTT1=
EXTT2=
EXTT3=
EXTT4=
EXTT5=
EXTT6=A few of these are from movies, like Pearl Harbor and Coyote Ugly
PLAYORDER=
